<svg xmlns="http://www.w3.org/2000/svg" viewBox="0 0 1186.03 283.81"><defs><style>.cls-1,.cls-13,.cls-18,.cls-23{fill:#7a3c13;stroke:#994a14;}.cls-1,.cls-10,.cls-11,.cls-12,.cls-13,.cls-14,.cls-15,.cls-16,.cls-17,.cls-18,.cls-19,.cls-20,.cls-21,.cls-22,.cls-23,.cls-24,.cls-25,.cls-26,.cls-27,.cls-9{stroke-miterlimit:10;}.cls-1,.cls-9{stroke-width:1.87px;}.cls-2{fill:#d8d3d0;}.cls-3{fill:#e2d9cf;}.cls-4{fill:#a18266;}.cls-5{fill:#baa594;}.cls-6{fill:#655848;}.cls-7{fill:#7a746f;}.cls-8{fill:#cdc8b3;}.cls-14,.cls-19,.cls-24,.cls-9{fill:#5f442f;stroke:#472e1a;}.cls-10,.cls-11,.cls-12,.cls-15,.cls-16,.cls-17,.cls-20,.cls-21,.cls-22,.cls-25,.cls-26,.cls-27{stroke:#fff;}.cls-10{stroke-width:3.14px;}.cls-11{stroke-width:2.07px;}.cls-12,.cls-17,.cls-22,.cls-27{fill:#fff;}.cls-12{stroke-width:2.65px;}.cls-13,.cls-14{stroke-width:2.77px;}.cls-15{stroke-width:4.64px;}.cls-16{stroke-width:3.06px;}.cls-17{stroke-width:3.92px;}.cls-18,.cls-19{stroke-width:2.64px;}.cls-20{stroke-width:4.43px;}.cls-21{stroke-width:2.92px;}.cls-22{stroke-width:3.74px;}.cls-23,.cls-24{stroke-width:2.2px;}.cls-25{stroke-width:3.7px;}.cls-26{stroke-width:2.43px;}.cls-27{stroke-width:3.12px;}</style></defs><g id="Layer_2" data-name="Layer 2"><g id="Layer_1-2" data-name="Layer 1"><g id="mining-carts"><path class="cls-1" d="M239.21,166.13,238,177.63a2.05,2.05,0,0,1-2.25,1.83l-3.22-.33.45-4.32L7.57,151.52l-.44,4.33-3.74-.39a2.74,2.74,0,0,1-2.44-3l1-9.72a3.76,3.76,0,0,1,4.14-3.35l2.71.28-.6,5.75,225.44,23.29.6-5.76,2.61.27A2.65,2.65,0,0,1,239.21,166.13Z"/><polygon class="cls-2" points="154.53 31.37 182.57 45.77 189.57 66.32 182.28 86.98 171.49 100.95 143.72 94.89 116.03 79.84 109.9 57.02 124.18 39.74 154.53 31.37"/><polygon class="cls-3" points="65.73 28.36 97.07 24.98 114.21 38.3 119.47 59.57 118.14 77.17 91.61 87.37 60.2 90.01 42.53 74.31 44.97 52.02 65.73 28.36"/><polygon class="cls-4" points="133.64 40.25 152.02 74.02 141.61 118.95 98.46 106.41 72.26 80.14 79.54 52.64 101.51 37.72 133.64 40.25"/><polygon class="cls-5" points="193.6 43.4 221.65 57.8 228.65 78.35 221.36 99.01 210.57 112.98 182.8 106.92 155.1 91.87 148.97 69.05 163.25 51.76 193.6 43.4"/><polygon class="cls-6" points="118.23 80.18 141.77 54.4 173.69 61.33 193.89 77.53 192.34 106.02 171.07 128.4 142.17 125.42 120.12 109.75 118.23 80.18"/><polygon class="cls-5" points="55.91 39.08 88.57 52.89 98.36 100.46 59.14 110.43 26.73 101.04 19.69 74.85 29.84 52.14 55.91 39.08"/><polygon class="cls-7" points="46.62 78.87 74.31 62.83 105.75 62.41 130.21 80.76 131.96 103.25 112.94 128.22 81.17 129.04 58.14 123.59 45.24 105.65 46.62 78.87"/><polygon class="cls-8" points="175.28 132.34 161.3 103.56 178.81 80.04 207.07 78.7 227.53 93.55 228.34 109.66 220.73 124.13 201.88 135.68 175.28 132.34"/><path class="cls-9" d="M28.27,102.41l-5.9-.61s.39-9.27,1.67-9.13l203.2,21.19a1.44,1.44,0,0,1,1.28,1.58l-.78,7.57-5.4-.56s-12,63.38-22,76.46L172.41,196s-17.47-42.31-53.13-5.49l-7.65-.79s-23.24-43.81-54.94-5.68L36,181.93S31.35,151.88,28.27,102.41Z"/><g id="Tire"><ellipse class="cls-10" cx="84.01" cy="186.89" rx="23.91" ry="26.33" transform="translate(-110.53 251.26) rotate(-84.1)"/><ellipse class="cls-11" cx="83.71" cy="186.86" rx="8.11" ry="8.93" transform="translate(-110.76 250.93) rotate(-84.1)"/></g><g id="Tire-2" data-name="Tire"><ellipse class="cls-10" cx="145.24" cy="193.22" rx="23.91" ry="26.33" transform="translate(-61.87 317.84) rotate(-84.1)"/><ellipse class="cls-11" cx="144.95" cy="193.19" rx="8.11" ry="8.93" transform="translate(-62.11 317.52) rotate(-84.1)"/></g><path class="cls-12" d="M57.08,158.39l5.19-50.31L48,106.61l.22-2.2,30.39,3.14-.23,2.2-14.27-1.48-5.2,50.31Z"/><path class="cls-12" d="M82.89,156.33,81,156.14l4.94-47.84,25.5,2.64-.2,1.86-23.6-2.44Zm2.43-26.76,21.44,2.21-.19,1.81-21.44-2.22Z"/><path class="cls-12" d="M116.59,154l4.34-42.09,1.56.16,14.77,36.35-.83-.09,21.78-32.57,1.55.16-4,47.93-1.83-.19,3.66-44.92.61.06-21.1,31.42-1-.1-14.34-35.08.67.06-4,39.09Z"/><path class="cls-12" d="M179.43,171a19,19,0,0,1-8.44-2.94,16.13,16.13,0,0,1-5.68-5.82l1.25-1.68a16.19,16.19,0,0,0,5.25,5.4,16.84,16.84,0,0,0,7.79,2.8,15.22,15.22,0,0,0,7.3-.75,9.76,9.76,0,0,0,4.54-3.56,11.52,11.52,0,0,0,1.91-5.41,10.3,10.3,0,0,0-.83-5.88,10.46,10.46,0,0,0-3.43-3.82,26.84,26.84,0,0,0-4.9-2.62c-1.78-.73-3.59-1.51-5.41-2.32a24.66,24.66,0,0,1-4.93-2.92,10.69,10.69,0,0,1-3.33-4.41,14.06,14.06,0,0,1-.71-6.81,14.78,14.78,0,0,1,2.17-6.41,11.76,11.76,0,0,1,5.15-4.47,15.54,15.54,0,0,1,8.28-1.06,18,18,0,0,1,6.56,2,33.22,33.22,0,0,1,7.26,5.4l-1.1,1.92A31,31,0,0,0,191,122.3a16.76,16.76,0,0,0-5.72-1.72,14.18,14.18,0,0,0-7.08.81,9.8,9.8,0,0,0-4.5,3.64,12.12,12.12,0,0,0-1.89,5.45,10.52,10.52,0,0,0,.83,6,10.36,10.36,0,0,0,3.43,3.81,26.48,26.48,0,0,0,4.93,2.62c1.8.74,3.61,1.52,5.41,2.33a23.37,23.37,0,0,1,4.89,3,11.07,11.07,0,0,1,3.34,4.38,13.31,13.31,0,0,1,.72,6.66,14.63,14.63,0,0,1-2.19,6.4,11.64,11.64,0,0,1-5.27,4.42A16.38,16.38,0,0,1,179.43,171Z"/><path class="cls-13" d="M1183.57,175.86l1.07,17a3,3,0,0,1-2.84,3.21l-4.76.3-.4-6.41L842.37,210.85l.4,6.41-5.54.35a4.06,4.06,0,0,1-4.29-3.79l-.9-14.4a5.56,5.56,0,0,1,5.21-5.9l4-.25.53,8.54L1176.08,181l-.54-8.54,3.88-.24A3.9,3.9,0,0,1,1183.57,175.86Z"/><polygon class="cls-2" points="1027.38 0 1071.76 14.17 1086.96 42.43 1081.35 74.31 1069.02 97.3 1027.07 95.22 983.04 80.01 968.56 48.23 985.18 19.57 1027.38 0"/><polygon class="cls-3" points="897.21 17.19 942.08 4.64 970.3 19.9 983.14 49.62 985.46 75.61 949.27 96.92 904.13 108.4 874.56 89.81 872.7 56.73 897.21 17.19"/><polygon class="cls-4" points="999.09 18.02 1034.09 62.77 1029.83 130.8 963.89 123 919.32 91.08 923.24 49.23 951.65 22.14 999.09 18.02"/><polygon class="cls-5" points="1087.26 8.04 1131.64 22.21 1146.84 50.46 1141.23 82.35 1128.9 105.34 1086.95 103.25 1042.92 88.05 1028.44 56.27 1045.06 27.6 1087.26 8.04"/><polygon class="cls-6" points="986.34 79.97 1014.38 36.66 1062.59 39.02 1095.97 57.72 1100.64 99.63 1075.07 137.42 1032.22 140.09 996.28 122.62 986.34 79.97"/><polygon class="cls-5" points="885.5 35.19 936.47 47.39 962.3 114.36 907.55 138.42 858.02 132.61 841.4 96.14 850.68 60.56 885.5 35.19"/><polygon class="cls-7" points="881.64 95.45 918.09 65.34 963.82 57.1 1003.94 77.91 1011.96 110.26 990.3 151.28 944.19 160.19 909.29 157.85 886.12 134.82 881.64 95.45"/><polygon class="cls-8" points="1082.17 142.13 1054.8 103.58 1074.6 65.05 1115.48 56.23 1148.91 72.9 1154 96.18 1146.42 119.12 1121.76 140.54 1082.17 142.13"/><path class="cls-14" d="M860.6,134.23l-8.75.54s-1.68-13.6.22-13.71l301.35-18.49a2.11,2.11,0,0,1,2.25,2l.7,11.23-8,.5s-2.1,95.31-13.5,116.79l-41.39,2.58s-35.75-57.42-78.79,4.92l-11.35.7s-44.51-58.21-81.45,5.08l-30.71,1.92S877.11,205.59,860.6,134.23Z"/><g id="Tire-3" data-name="Tire"><ellipse class="cls-15" cx="962.38" cy="243.84" rx="38.91" ry="35.34" transform="translate(-13.31 60.35) rotate(-3.57)"/><ellipse class="cls-16" cx="961.94" cy="243.86" rx="13.19" ry="11.98" transform="translate(-13.31 60.33) rotate(-3.57)"/></g><g id="Tire-4" data-name="Tire"><ellipse class="cls-15" cx="1053.18" cy="238.18" rx="38.91" ry="35.34" transform="translate(-12.78 65.99) rotate(-3.57)"/><ellipse class="cls-16" cx="1052.74" cy="238.2" rx="13.19" ry="11.98" transform="translate(-12.78 65.97) rotate(-3.57)"/></g><path class="cls-17" d="M916.2,208.83l-4.65-74.59-21.17,1.32-.2-3.26,45.05-2.81.2,3.26-21.16,1.32,4.65,74.59Z"/><path class="cls-17" d="M953.32,199.56l-2.8.17-4.42-70.92,37.8-2.36.18,2.77-35,2.18Zm-3-39.6,31.79-2,.17,2.67-31.8,2Z"/><path class="cls-17" d="M1001.88,188,998,125.57l2.3-.14,30.37,49.39-1.24.08,23.83-52.77,2.31-.15,5.86,70.84-2.72.17-5.58-66.38.91,0-23.12,50.93-1.48.09L1000,129.92l1-.06,3.62,57.95Z"/><path class="cls-17" d="M1097.62,197.52a28.3,28.3,0,0,1-13-2.24,23.81,23.81,0,0,1-9.7-7.11l1.42-2.75a24.08,24.08,0,0,0,9,6.6,25,25,0,0,0,12,2.19,22.5,22.5,0,0,0,10.44-2.87,14.4,14.4,0,0,0,5.76-6.29,17.28,17.28,0,0,0,1.48-8.36,14.07,14.07,0,0,0-8.57-13.1,39.51,39.51,0,0,0-7.78-2.62q-4.17-1-8.45-2.08a36.42,36.42,0,0,1-7.9-3.06,15.54,15.54,0,0,1-5.92-5.62,20.59,20.59,0,0,1-2.69-9.75,21.79,21.79,0,0,1,1.6-9.86,17.47,17.47,0,0,1,6.42-7.78q4.5-3.1,11.82-3.56a26.92,26.92,0,0,1,10,1.31c3.35,1.09,9.47,4.13,11.89,6.12l-1.13,3.06a45.63,45.63,0,0,0-11.76-6.07,25,25,0,0,0-8.75-1.11,21,21,0,0,0-10.13,2.9,14.48,14.48,0,0,0-5.67,6.4,17.75,17.75,0,0,0-1.42,8.4,14.07,14.07,0,0,0,8.57,13.22,39.46,39.46,0,0,0,7.82,2.62c2.82.64,5.63,1.33,8.46,2.08a34.74,34.74,0,0,1,7.85,3.11,16.27,16.27,0,0,1,5.92,5.57,19.66,19.66,0,0,1,2.68,9.53,21.55,21.55,0,0,1-1.64,9.86,17.16,17.16,0,0,1-6.61,7.73Q1105,197.05,1097.62,197.52Z"/><path class="cls-18" d="M842.61,198.28l-.27,16.33a2.9,2.9,0,0,1-2.94,2.84l-4.56-.07.1-6.14L515.05,206l-.11,6.13-5.29-.09a3.85,3.85,0,0,1-3.8-3.92l.22-13.79a5.31,5.31,0,0,1,5.4-5.22l3.85.06-.13,8.17,319.89,5.27.14-8.17,3.7.06A3.75,3.75,0,0,1,842.61,198.28Z"/><polygon class="cls-2" points="707.07 19.08 748.27 35.91 760.62 63.96 752.89 93.91 739.42 114.87 699.63 109.74 658.84 91.95 647.43 60.59 665.41 34.55 707.07 19.08"/><polygon class="cls-3" points="581.82 25.67 625.49 17.09 651.22 33.75 661.21 63.02 661.48 87.94 625.41 105.51 581.55 113.06 554.8 93.13 555.51 61.48 581.82 25.67"/><polygon class="cls-4" points="678.78 34.11 708.75 79.37 699.58 143.83 637.37 131.45 597.32 97.7 604.2 58.14 633.29 34.48 678.78 34.11"/><polygon class="cls-5" points="763.5 31.23 804.7 48.06 817.04 76.11 809.31 106.06 795.84 127.02 756.05 121.89 715.26 104.1 703.86 72.74 721.84 46.7 763.5 31.23"/><polygon class="cls-6" points="661.98 92.15 691.93 53.02 737.67 58.89 768.06 79.2 769.35 119.47 742.17 153.53 701.16 152.85 668.24 133.51 661.98 92.15"/><polygon class="cls-5" points="569.31 41.94 616.94 57.39 636.5 123.1 582.56 141.9 535.83 132.65 522.74 96.67 534.25 63.48 569.31 41.94"/><polygon class="cls-7" points="561.11 99.04 598.09 73.1 642.25 68.69 678.9 91.51 684.1 122.92 660.4 160.36 615.81 165.38 582.75 160.54 562.42 136.87 561.11 99.04"/><polygon class="cls-8" points="748.57 158.55 725.4 119.78 747.15 84.57 786.75 79.25 817.33 97.64 820.43 120.18 811.49 141.46 786.39 160.01 748.57 158.55"/><path class="cls-19" d="M538.16,134.38l-8.37-.14s-.58-13.07,1.24-13l288.37,5a2,2,0,0,1,2,2.07L821.21,139l-7.66-.13s-9.17,90.61-21.63,110.21l-39.62-.65s-29.73-57.37-75.39-1.24l-10.86-.18s-38-58.78-77.95-1.28l-29.39-.48S548.53,203.58,538.16,134.38Z"/><g id="Tire-5" data-name="Tire"><ellipse class="cls-20" cx="626.85" cy="246.41" rx="33.76" ry="37.17" transform="translate(370.17 869.12) rotate(-89.06)"/><ellipse class="cls-21" cx="626.43" cy="246.4" rx="11.44" ry="12.6" transform="translate(369.76 868.69) rotate(-89.06)"/></g><g id="Tire-6" data-name="Tire"><ellipse class="cls-20" cx="713.75" cy="247.84" rx="33.76" ry="37.17" transform="translate(454.2 957.41) rotate(-89.06)"/><ellipse class="cls-21" cx="713.33" cy="247.83" rx="11.44" ry="12.6" transform="translate(453.79 956.98) rotate(-89.06)"/></g><path class="cls-22" d="M585.51,209.6l1.17-71.38-20.26-.34.06-3.12,43.11.71-.05,3.12-20.26-.33-1.17,71.38Z"/><path class="cls-22" d="M621.56,203.56l-2.68-.05L620,135.64l36.18.6,0,2.64-33.5-.55Zm.15-37.93,30.42.5,0,2.56-30.42-.5Z"/><path class="cls-22" d="M668.67,196.18l1-59.72,2.21,0,25.2,49.31-1.18,0,26.66-48.46,2.21,0,.26,67.89-2.6,0-.34-63.63h.87L697.1,188.37l-1.42,0-24.44-47.6.94,0-.91,55.46Z"/><path class="cls-22" d="M759.13,212.45a26.85,26.85,0,0,1-12.24-3.11,22.75,22.75,0,0,1-8.7-7.49l1.56-2.51a23,23,0,0,0,8,6.95,23.79,23.79,0,0,0,11.3,3,21.38,21.38,0,0,0,10.17-1.95,13.71,13.71,0,0,0,6-5.56,16.47,16.47,0,0,0,2-7.84,13.46,13.46,0,0,0-7.18-13.12,37.53,37.53,0,0,0-7.21-3.08q-3.9-1.23-7.89-2.62a34.12,34.12,0,0,1-7.29-3.5,14.9,14.9,0,0,1-5.22-5.8,19.65,19.65,0,0,1-1.83-9.49,21,21,0,0,1,2.26-9.27,16.75,16.75,0,0,1,6.7-6.92q4.51-2.62,11.53-2.51a25.9,25.9,0,0,1,9.46,2,46.33,46.33,0,0,1,10.87,6.72l-1.31,2.83a43.65,43.65,0,0,0-10.74-6.66,23.77,23.77,0,0,0-8.25-1.72,20.11,20.11,0,0,0-9.87,2,13.78,13.78,0,0,0-5.88,5.67,17,17,0,0,0-2,7.89,14.78,14.78,0,0,0,1.9,8.28,14.44,14.44,0,0,0,5.28,5,36.51,36.51,0,0,0,7.25,3.08c2.63.82,5.26,1.7,7.89,2.62a33.25,33.25,0,0,1,7.25,3.56,15.53,15.53,0,0,1,5.22,5.74,18.69,18.69,0,0,1,1.83,9.28,20.63,20.63,0,0,1-2.3,9.27,16.4,16.4,0,0,1-6.87,6.86Q766.21,212.58,759.13,212.45Z"/><path class="cls-23" d="M513.64,192.52l-1.29,13.55a2.41,2.41,0,0,1-2.63,2.17l-3.79-.36.49-5.09-265.5-25.35-.49,5.09-4.4-.42a3.22,3.22,0,0,1-2.9-3.51l1.1-11.44a4.43,4.43,0,0,1,4.83-4l3.19.31-.65,6.78,265.51,25.35.64-6.79,3.08.3A3.12,3.12,0,0,1,513.64,192.52Z"/><polygon class="cls-2" points="412.75 34.71 445.89 51.4 454.31 75.52 445.92 99.9 433.35 116.44 400.62 109.56 367.89 92.1 360.47 65.3 377.12 44.83 412.75 34.71"/><polygon class="cls-3" points="308.23 31.98 345.09 27.71 365.38 43.24 371.76 68.22 370.35 88.94 339.22 101.18 302.28 104.58 281.35 86.26 284.02 60.01 308.23 31.98"/><polygon class="cls-4" points="388.25 45.35 410.2 84.92 398.35 137.89 347.46 123.53 316.39 92.85 324.7 60.42 350.43 42.67 388.25 45.35"/><polygon class="cls-5" points="458.85 48.51 491.98 65.19 500.41 89.31 492.02 113.69 479.45 130.24 446.71 123.36 413.98 105.9 406.56 79.1 423.21 58.63 458.85 48.51"/><polygon class="cls-6" points="370.49 92.48 397.95 61.92 435.58 69.8 459.49 88.67 457.93 122.22 433.1 148.74 399.07 145.49 372.98 127.26 370.49 92.48"/><polygon class="cls-5" points="296.77 44.67 335.34 60.64 347.29 116.53 301.22 128.62 263 117.86 254.48 87.11 266.22 60.28 296.77 44.67"/><polygon class="cls-7" points="286.21 91.59 318.64 72.46 355.63 71.69 384.59 93.06 386.86 119.5 364.7 149.06 327.32 150.31 300.16 144.12 284.82 123.11 286.21 91.59"/><polygon class="cls-8" points="438.1 153.34 421.39 119.6 441.77 91.77 475.02 89.93 499.24 107.22 500.33 126.16 491.5 143.26 469.44 157.03 438.1 153.34"/><path class="cls-24" d="M264.82,119.46l-6.95-.67s.38-10.9,1.89-10.76l239.32,23.09A1.69,1.69,0,0,1,500.6,133l-.85,8.91-6.37-.6s-13.55,74.69-25.2,90.17l-32.87-3.14s-20.95-49.63-62.58-6l-9-.86S336,170.13,299,215.3L274.62,213S268.9,177.64,264.82,119.46Z"/><g id="Tire-7" data-name="Tire"><ellipse class="cls-25" cx="331.19" cy="218.37" rx="28.14" ry="30.99" transform="translate(82.33 527.3) rotate(-84.55)"/><ellipse class="cls-26" cx="330.84" cy="218.34" rx="9.54" ry="10.5" transform="translate(82.05 526.93) rotate(-84.55)"/></g><g id="Tire-8" data-name="Tire"><ellipse class="cls-25" cx="403.31" cy="225.26" rx="28.14" ry="30.99" transform="translate(140.74 605.33) rotate(-84.55)"/><ellipse class="cls-26" cx="402.96" cy="225.22" rx="9.54" ry="10.5" transform="translate(140.46 604.95) rotate(-84.55)"/></g><path class="cls-27" d="M299.24,185.07l5.65-59.24-16.81-1.61.25-2.59,35.78,3.42-.25,2.59L307.05,126l-5.66,59.24Z"/><path class="cls-27" d="M329.59,182.41l-2.22-.21,5.38-56.33,30,2.87-.21,2.19-27.8-2.65Zm2.61-31.51,25.26,2.41-.21,2.13L332,153Z"/><path class="cls-27" d="M369.23,179.37,374,129.8l1.83.18,17.71,42.64-1-.1L417.85,134l1.84.18-4.24,56.44-2.16-.21,3.9-52.9.72.07-24.54,37.18-1.18-.12L375,133.48l.79.07-4.4,46Z"/><path class="cls-27" d="M443.34,198.83a22.66,22.66,0,0,1-10-3.39,19,19,0,0,1-6.74-6.8l1.46-2a19.24,19.24,0,0,0,6.23,6.3,19.82,19.82,0,0,0,9.2,3.23,17.8,17.8,0,0,0,8.57-1,11.47,11.47,0,0,0,5.32-4.22,13.67,13.67,0,0,0,2.2-6.39,11.22,11.22,0,0,0-5.1-11.38,31.67,31.67,0,0,0-5.79-3q-3.17-1.28-6.39-2.69a28.45,28.45,0,0,1-5.83-3.39,12.52,12.52,0,0,1-4-5.16,16.58,16.58,0,0,1-.9-8,17.67,17.67,0,0,1,2.49-7.55,13.88,13.88,0,0,1,6-5.31,18.31,18.31,0,0,1,9.75-1.33,21.3,21.3,0,0,1,7.73,2.29,38.71,38.71,0,0,1,8.59,6.29l-1.28,2.27a36,36,0,0,0-8.49-6.24,19.73,19.73,0,0,0-6.74-2,16.72,16.72,0,0,0-8.33,1,11.41,11.41,0,0,0-5.25,4.32,14,14,0,0,0-2.17,6.43,11.19,11.19,0,0,0,5.09,11.47,31.32,31.32,0,0,0,5.82,3c2.14.86,4.27,1.75,6.39,2.69a27.64,27.64,0,0,1,5.79,3.43,13.14,13.14,0,0,1,4,5.12,15.71,15.71,0,0,1,.91,7.83,17.14,17.14,0,0,1-2.52,7.55,13.7,13.7,0,0,1-6.16,5.26A19.41,19.41,0,0,1,443.34,198.83Z"/></g></g></g></svg>